<svg width="24" height="24" viewBox="0 0 24 24" fill="none" xmlns="http://www.w3.org/2000/svg">
<g clip-path="url(#clip0_4120_3767)">
<path d="M7.17766 24C9.74602 24 12.0032 22.6438 13.2718 20.6101H1.08356C2.3521 22.6438 4.60929 24 7.17766 24Z" fill="white"/>
<path d="M7.17764 9.64478C4.6651 9.64478 2.45036 10.9427 1.1676 12.903H13.1877C11.905 10.9427 9.69019 9.64478 7.17764 9.64478Z" fill="white"/>
<path d="M14.3553 16.8223C14.3553 15.9371 14.1939 15.0891 13.8995 14.3055H0.45587C0.161478 15.0891 0 15.9371 0 16.8223C0 17.6582 0.144087 18.4609 0.40795 19.2076H13.9473C14.2112 18.4609 14.3553 17.6582 14.3553 16.8223Z" fill="white"/>
<path d="M16.8224 9.98823C18.3746 9.98823 19.6329 8.72989 19.6329 7.17765C19.6329 5.62541 18.3746 4.36707 16.8224 4.36707C15.2701 4.36707 14.0118 5.62541 14.0118 7.17765C14.0118 8.72989 15.2701 9.98823 16.8224 9.98823Z" fill="white"/>
<path d="M16.8224 14.3553C20.7801 14.3553 24 11.1355 24 7.17769C24 3.21993 20.7801 0 16.8224 0C12.8646 0 9.64471 3.21989 9.64471 7.17765C9.64471 7.69953 9.69348 8.17625 9.79483 8.65087C12.424 9.49487 14.5043 11.5748 15.3487 14.2038C15.8305 14.3039 16.3244 14.3553 16.8224 14.3553ZM12.6092 7.17765C12.6092 4.85454 14.4993 2.96453 16.8224 2.96453C19.1455 2.96453 21.0355 4.85454 21.0355 7.17765C21.0355 9.50076 19.1455 11.3908 16.8224 11.3908C14.4993 11.3908 12.6092 9.5008 12.6092 7.17765Z" fill="white"/>
</g>
<defs>
<clipPath id="clip0_4120_3767">
<rect width="24" height="24" fill="white"/>
</clipPath>
</defs>
</svg>
