<svg width="40" height="40" viewBox="0 0 40 40" fill="none" xmlns="http://www.w3.org/2000/svg">
<g clip-path="url(#clip0_4120_3928)">
<path d="M18.2275 18.8196C17.1721 18.0952 16.0044 17.5414 14.7917 17.1832C14.3544 18.4032 14.2274 19.2029 14.2251 19.2182C14.1377 19.7965 13.64 20.2111 13.0725 20.2111C13.0146 20.2111 12.9558 20.2067 12.8968 20.1979C12.2595 20.1016 11.8208 19.5069 11.9171 18.8696C11.9274 18.8011 12.0562 17.9859 12.473 16.7466C12.1772 16.7222 11.8813 16.7097 11.586 16.7097C5.19744 16.7096 0 21.9071 0 28.2956C0 34.684 5.19744 39.8815 11.5859 39.8815C13.9787 39.8815 16.298 39.143 18.2374 37.7823C15.9166 35.2943 14.494 31.9583 14.494 28.2956C14.494 24.6382 15.9126 21.3064 18.2275 18.8196Z" fill="#9D30FE"/>
<path d="M15.5735 14.9192C15.5735 14.9192 15.8846 14.5257 16.9962 12.9386C18.3493 11.0068 20.0581 9.36931 22.0754 8.07161C22.6219 7.71993 23.1933 7.39455 23.786 7.09243C22.7823 10.5736 23.117 13.4231 23.6568 15.3863L23.7804 15.3253C24.442 14.9987 25.1495 14.7746 25.8785 14.6607C25.1265 11.8241 25.399 8.91906 26.6938 5.87082C28.0853 5.39854 29.5702 5.03792 31.1429 4.79416C31.7799 4.69542 32.2161 4.09905 32.1174 3.46206C32.0187 2.82515 31.4227 2.3889 30.7853 2.48755C28.8993 2.77994 27.1228 3.22787 25.4665 3.82657C25.4536 3.83078 25.4409 3.83537 25.4281 3.84004C23.7635 4.44473 22.221 5.20224 20.8123 6.10859C18.5391 7.57101 16.612 9.41841 15.0842 11.5995C13.7241 13.5414 13.2547 14.4826 13.2547 14.4826C14.0344 14.5468 14.8127 14.6945 15.5735 14.9192Z" fill="#9D30FE"/>
<path d="M28.4141 16.7097C27.8143 16.7097 27.225 16.7555 26.6495 16.8439C27.1029 17.7798 27.5158 18.2985 27.5225 18.3067C27.9319 18.8045 27.8585 19.5379 27.3607 19.9473C27.144 20.1255 26.882 20.2122 26.6213 20.2122C26.2832 20.2122 25.9475 20.0663 25.7163 19.7851C25.6775 19.7379 25.004 18.9079 24.3552 17.444C19.9628 19.0923 16.8282 23.3345 16.8282 28.2956C16.8282 34.684 22.0256 39.8815 28.4141 39.8815C34.8026 39.8815 40 34.6841 40 28.2956C40 21.907 34.8027 16.7097 28.4141 16.7097Z" fill="#9D30FE"/>
<path d="M1.06377 5.32365C2.72723 9.7369 7.65337 11.9661 12.0667 10.3026L13.7942 9.65147C12.4985 8.81374 10.013 7.36883 7.5141 6.80358C6.88543 6.66135 6.49104 6.0365 6.63327 5.40784C6.7755 4.77918 7.40019 4.38533 8.02909 4.52701C10.7862 5.15062 13.4268 6.64369 14.903 7.58629L14.1726 5.64872C12.5092 1.23548 7.58303 -0.993708 3.16971 0.669758L0.738543 1.58607C0.214606 1.78361 -0.0500863 2.36847 0.147382 2.89249L1.06377 5.32365Z" fill="#9D30FE"/>
</g>
<defs>
<clipPath id="clip0_4120_3928">
<rect width="40" height="40" fill="white"/>
</clipPath>
</defs>
</svg>
