<svg width="167" height="80" viewBox="0 0 167 80" fill="none" xmlns="http://www.w3.org/2000/svg">
<path d="M35.623 61.2151C40.5256 62.8484 43.046 65.0602 43.1496 67.8845C42.5627 75.3026 39.7661 79.0116 34.7599 79.0116H22.0545L17.3936 65.979C21.5366 71.3894 25.9559 74.1116 30.5823 74.1797C32.93 73.5672 34.0694 71.9679 34.0694 69.3818C23.8153 66.0811 18.7055 61.045 18.7055 54.2734C18.7055 48.6929 22.5379 45.5964 30.237 44.9839C37.9362 44.3714 41.7686 46.1408 41.7686 50.2582C40.8364 54.0352 39.1446 55.9408 36.6933 55.9748L32.9646 52.8783C35.0016 51.1429 34.898 49.8158 32.6538 48.863C29.5811 49.8839 28.0619 51.313 28.0619 53.1505C28.2 56.8595 30.7204 59.5477 35.623 61.147V61.2151Z" fill="#62D6FF"/>
<path d="M143.186 61.2151C148.089 62.8484 150.609 65.0602 150.713 67.8845C150.126 75.3026 147.329 79.0116 142.323 79.0116H129.617L124.957 65.979C129.1 71.3894 133.519 74.1116 138.145 74.1797C140.493 73.5672 141.632 71.9679 141.632 69.3818C131.378 66.0811 126.269 61.045 126.269 54.2734C126.269 48.6929 130.101 45.5964 137.8 44.9839C145.499 44.3714 149.332 46.1408 149.332 50.2582C148.399 54.0352 146.708 55.9408 144.256 55.9748L140.528 52.8783C142.565 51.1429 142.461 49.8158 140.217 48.863C137.144 49.8839 135.625 51.313 135.625 53.1505C135.763 56.8595 138.283 59.5477 143.186 61.147V61.2151Z" fill="#62D6FF"/>
<path d="M58.686 71.4251C58.755 72.2758 58.8931 73.0244 59.0658 73.6709C63.7267 73.2286 68.0424 72.3098 71.9783 70.9487C69.6996 73.4327 68.3531 76.155 67.8698 79.1494C66.5923 79.1494 65.3839 79.1494 64.2446 79.1494H48.9843V78.7411C49.3986 78.2307 49.7094 77.6522 49.9165 77.0397V76.7334C49.9856 75.7126 50.0546 74.4876 50.0546 73.0925C50.0546 55.296 49.4677 46.2786 48.2593 45.9724L59.1348 44.2369L58.7205 51.689V71.4591L58.686 71.4251Z" fill="#62D6FF"/>
<path d="M87.1694 44.8489C92.4518 44.8489 95.5591 48.4219 96.4913 55.5677V64.3468C96.4913 74.1809 93.384 79.1149 87.1694 79.1149H81.0929C75.8105 79.1149 72.7032 75.542 71.771 68.3961V59.617C71.771 49.783 74.8783 44.8489 81.0929 44.8489H87.1694ZM82.9918 50.2253C82.543 50.5316 81.887 50.6677 81.0929 50.6677V69.7913C81.0929 72.0711 82.4049 73.4322 84.9597 73.9427C85.6157 73.6364 86.3408 73.5003 87.1349 73.5003V54.3767C87.1349 52.0968 85.7538 50.7357 82.9573 50.2253H82.9918Z" fill="#62D6FF"/>
<path d="M114.099 50.9403V51.1445C114.099 68.941 114.686 77.9584 115.895 78.2646L105.019 80L105.434 72.5479V52.7778C105.364 51.9271 105.226 51.1785 105.054 50.532C103.086 50.9744 100.117 51.8931 96.1807 53.2542C98.4593 50.7702 99.8058 48.048 100.289 45.0535C101.567 45.0535 102.775 45.0535 103.914 45.0535H115.135H115.411C116.551 45.0535 117.759 45.0535 119.037 45.0535C119.52 48.048 120.866 50.7702 123.145 53.2542C119.209 51.8931 116.24 50.9744 114.272 50.532C114.238 50.7021 114.203 50.8723 114.134 51.0424L114.03 50.9063L114.099 50.9403Z" fill="#62D6FF"/>
<path d="M17.9187 7.79342V7.99758C17.9187 25.7941 18.5057 34.8114 19.7141 35.1177L8.83853 36.8531L9.25284 29.401V9.63091C9.18379 8.78022 9.04568 8.03161 8.87306 7.38508C6.9051 7.82744 3.93591 8.74619 0 10.1073C2.27868 7.62328 3.62518 4.90106 4.10854 1.90662C5.38598 1.90662 6.59437 1.90662 7.73371 1.90662H18.9545H19.2307C20.3701 1.90662 21.5784 1.90662 22.8559 1.90662C23.3392 4.90106 24.6857 7.62328 26.9644 10.1073C23.0285 8.74619 20.0593 7.82744 18.0914 7.38508C18.0568 7.55522 18.0223 7.72536 17.9533 7.8955L17.8497 7.75939L17.9187 7.79342Z" fill="white"/>
<path d="M43.5362 22.8662V29.4335L45.6767 33.9252L33.6273 29.944V29.5356C34.4559 28.5148 34.8703 27.2898 34.8703 25.8947V6.66898H34.4559C32.2463 7.07731 31.1415 7.89398 31.1415 9.08495C30.8308 9.08495 30.0367 7.45161 28.6902 4.18495C28.5176 4.18495 27.827 3.36829 26.6187 1.76898H47.6792C53.6521 1.76898 57.1047 4.72939 58.0023 10.6162C57.7261 15.312 55.1713 18.3745 50.4067 19.8037C54.0319 26.0648 59.6596 32.8363 67.2897 40.1523L51.5461 35.9669C52.5473 34.0613 49.8888 29.7058 43.5707 22.9002L43.5362 22.8662ZM49.1293 11.3648C48.6459 8.23425 47.0578 6.66898 44.3302 6.66898H41.0158V7.07731L43.5016 7.89398V17.0815C47.1613 16.9113 49.0257 15.0058 49.0948 11.3648H49.1293Z" fill="white"/>
<path d="M73.7462 4.49174V28.2431C74.0224 31.0674 74.057 34.1299 73.8843 37.4306L63.8374 33.9257V33.5174C64.666 32.4966 65.0803 31.2716 65.0803 29.8764V2.34799L74.6784 2.31396L73.7462 4.49174Z" fill="white"/>
<path d="M96.6717 7.79342V7.99758C96.6717 25.7941 97.2586 34.8114 98.467 35.1177L87.5915 36.8531L88.0058 29.401V9.63091C87.9367 8.78022 87.7986 8.03161 87.626 7.38508C85.658 7.82744 82.6888 8.74619 78.7529 10.1073C81.0316 7.62328 82.3781 4.90106 82.8615 1.90662C84.1389 1.90662 85.3473 1.90662 86.4866 1.90662H97.7074H97.9836C99.123 1.90662 100.331 1.90662 101.609 1.90662C102.092 4.90106 103.439 7.62328 105.717 10.1073C101.781 8.74619 98.8123 7.82744 96.8443 7.38508C96.8098 7.55522 96.7752 7.72536 96.7062 7.8955L96.6026 7.75939L96.6717 7.79342Z" fill="white"/>
<path d="M125.569 1.70203C130.852 1.70203 133.959 5.27494 134.891 12.4208V21.1999C134.891 31.0339 131.784 35.968 125.569 35.968H119.493C114.21 35.968 111.103 32.395 110.171 25.2492V16.4701C110.171 6.63605 113.278 1.70203 119.493 1.70203H125.569ZM121.392 7.07841C120.943 7.38466 120.287 7.52077 119.493 7.52077V26.6444C119.493 28.9242 120.805 30.2853 123.36 30.7957C124.016 30.4895 124.741 30.3534 125.535 30.3534V11.1958C125.535 8.91591 124.154 7.5548 121.357 7.04438L121.392 7.07841Z" fill="white"/>
<path d="M157.367 15.7889V2.34791L167 2.31389L166.068 4.49166V30.4548C166.344 33.2791 166.378 36.3416 166.206 39.6423L156.159 36.1375V35.7291C156.987 34.7083 157.402 33.4833 157.402 32.0882V29.7743L151.912 20.9271V26.2354C152.188 29.0597 152.223 32.1222 152.05 35.4229L142.003 31.918V31.5097C142.832 30.4889 143.246 29.2639 143.246 27.8687V2.34791L147.355 0L157.402 15.7889H157.367Z" fill="white"/>
</svg>
