<svg width="32" height="32" viewBox="0 0 32 32" fill="none" xmlns="http://www.w3.org/2000/svg">
<path fill-rule="evenodd" clip-rule="evenodd" d="M16 1C24.2842 1 31 7.71581 31 16C31 24.2842 24.2842 31 16 31C7.71581 31 1 24.2842 1 16C1 7.71581 7.71581 1 16 1ZM21.6233 16.6558L16.7395 11.7721C16.5433 11.5761 16.2773 11.466 16 11.466C15.7227 11.466 15.4567 11.5761 15.2605 11.7721L10.3767 16.6558C10.2739 16.7516 10.1915 16.8672 10.1343 16.9955C10.0771 17.1239 10.0463 17.2625 10.0438 17.403C10.0413 17.5435 10.0672 17.6831 10.1198 17.8134C10.1725 17.9437 10.2508 18.0621 10.3502 18.1614C10.4496 18.2608 10.5679 18.3392 10.6982 18.3918C10.8285 18.4444 10.9681 18.4703 11.1086 18.4678C11.2492 18.4653 11.3877 18.4346 11.5161 18.3774C11.6445 18.3202 11.76 18.2377 11.8558 18.1349L16 13.9907L20.1442 18.1349C20.24 18.2377 20.3555 18.3202 20.4839 18.3774C20.6123 18.4346 20.7508 18.4653 20.8914 18.4678C21.0319 18.4703 21.1715 18.4444 21.3018 18.3918C21.4321 18.3392 21.5504 18.2608 21.6498 18.1614C21.7492 18.0621 21.8275 17.9437 21.8802 17.8134C21.9328 17.6831 21.9587 17.5435 21.9562 17.403C21.9537 17.2625 21.9229 17.1239 21.8657 16.9955C21.8085 16.8672 21.7261 16.7516 21.6233 16.6558Z" fill="white"/>
</svg>
